Coordinates
version=1
nRows=20
nColumns=30
inDegrees=yes

Units are S.I. units (second, meters, Newtons, ...)
Angles are in degrees.

endheader
time	floatyaw	floatroll	floatpitch	floatx	floaty	floatz	pro_sup_l	deviation_l	flexion_l	cmc_flexion_l	cmc_abduction_l	mp_flexion_l	ip_flexion_l	2mcp_flexion_l	2mcp_abduction_l	2pm_flexion_l	2md_flexion_l	3mcp_flexion_l	3mcp_abduction_l	3pm_flexion_l	3md_flexion_l	4mcp_flexion_l	4mcp_abduction_l	4pm_flexion_l	4md_flexion_l	5mcp_flexion_l	5mcp_abduction_l	5pm_flexion_l	5md_flexion_l
-1.495000	-2.783033	-3.505068	94.703499	-0.007179	-0.270167	0.003070	91.525092	0.805452	-1.563595	26.833803	1.791244	-18.430435	-33.331473	19.082612	6.272988	32.866452	20.331973	8.765837	4.501698	35.331675	21.687806	-2.092077	-3.812437	52.072896	33.160156	-21.774782	-8.797164	62.228188	50.072656
-1.485000	-2.783033	-3.505068	94.703499	-0.007187	-0.270166	0.003068	91.508303	0.803303	-1.567634	26.823223	1.815126	-18.441024	-33.314179	19.110992	6.267528	32.836784	20.328239	8.798172	4.500244	35.294523	21.677765	-2.081388	-3.809900	52.052290	33.187110	-21.728815	-8.797824	62.190555	50.060552
-1.475000	-2.783033	-3.505068	94.703499	-0.007193	-0.270170	0.003071	91.492188	0.800893	-1.570676	26.819246	1.832516	-18.451065	-33.311900	19.133198	6.257171	32.816946	20.322629	8.816038	4.499742	35.270828	21.670720	-2.087571	-3.811478	52.050040	33.216632	-21.693985	-8.800313	62.148626	50.064793
-1.465000	-2.783033	-3.505068	94.703499	-0.007199	-0.270176	0.003081	91.480269	0.798574	-1.571374	26.822232	1.838661	-18.459315	-33.324279	19.142892	6.243945	32.811594	20.315093	8.816099	4.500531	35.263890	21.666475	-2.106765	-3.816065	52.062443	33.240242	-21.673970	-8.802087	62.113219	50.083867
-1.455000	-2.783033	-3.505068	94.703499	-0.007204	-0.270185	0.003098	91.472797	0.795517	-1.569923	26.829556	1.834573	-18.465597	-33.344041	19.139359	6.230603	32.819376	20.306610	8.800953	4.502967	35.270762	21.665182	-2.132033	-3.821871	52.081069	33.253071	-21.670885	-8.801437	62.093149	50.112516
-1.445000	-2.783033	-3.505068	94.703499	-0.007210	-0.270199	0.003120	91.467863	0.790719	-1.567834	26.838407	1.824841	-18.470582	-33.362614	19.126478	6.219864	32.835521	20.299084	8.777140	4.506962	35.285293	21.667551	-2.156433	-3.827141	52.098103	33.255303	-21.684911	-8.798419	62.092627	50.144054
-1.435000	-2.783033	-3.505068	94.703499	-0.007215	-0.270216	0.003143	91.464092	0.784271	-1.566940	26.848832	1.813038	-18.474983	-33.376796	19.108951	6.213703	32.856352	20.294900	8.751275	4.511864	35.302729	21.674323	-2.175713	-3.830723	52.111166	33.250445	-21.714097	-8.795079	62.111902	50.171987
-1.425000	-2.783033	-3.505068	94.703499	-0.007217	-0.270237	0.003162	91.462471	0.777741	-1.568477	26.864384	1.798757	-18.478768	-33.391432	19.089097	6.212966	32.881730	20.296112	8.727000	4.516724	35.322352	21.685388	-2.189022	-3.832211	52.123957	33.241997	-21.754218	-8.794648	62.149115	50.190162
-1.415000	-2.783033	-3.505068	94.703499	-0.007216	-0.270258	0.003173	91.465546	0.773219	-1.572763	26.889319	1.779152	-18.480983	-33.415817	19.066794	6.217410	32.913346	20.303362	8.704766	4.520729	35.346331	21.699153	-2.197466	-3.831710	52.142167	33.231140	-21.798904	-8.800001	62.200700	50.192745
-1.405000	-2.783033	-3.505068	94.703499	-0.007210	-0.270277	0.003175	91.474588	0.771785	-1.579369	26.923977	1.753759	-18.480256	-33.455855	19.042153	6.226027	32.950602	20.315138	8.684054	4.523517	35.376074	21.712715	-2.201974	-3.829594	52.167917	33.217001	-21.840601	-8.812086	62.260129	50.175767
-1.395000	-2.783033	-3.505068	94.703499	-0.007203	-0.270294	0.003172	91.487337	0.772725	-1.587362	26.961703	1.728061	-18.475542	-33.507081	19.018060	6.237376	32.987977	20.328142	8.665834	4.525241	35.409195	21.722934	-2.202125	-3.826515	52.197014	33.198840	-21.872470	-8.829114	62.317398	50.139985
-1.385000	-2.783033	-3.505068	94.703499	-0.007197	-0.270307	0.003165	91.498559	0.774203	-1.595484	26.990045	1.711995	-18.466556	-33.553619	18.999902	6.249761	33.016603	20.338869	8.653157	4.526403	35.439519	21.727795	-2.196553	-3.823563	52.220949	33.178019	-21.890460	-8.846936	62.361500	50.092482
-1.375000	-2.783033	-3.505068	94.703499	-0.007193	-0.270317	0.003157	91.503247	0.774821	-1.602397	26.996221	1.714042	-18.453778	-33.574705	18.992346	6.261380	33.029369	20.345459	8.649445	4.527533	35.460196	21.727153	-2.184380	-3.822201	52.232055	33.158101	-21.894353	-8.860493	62.385306	50.044535
-1.365000	-2.783033	-3.505068	94.703499	-0.007190	-0.270323	0.003146	91.499907	0.774676	-1.607073	26.973829	1.735649	-18.438325	-33.555381	18.995851	6.270683	33.025721	20.348587	8.656033	4.528876	35.467527	21.722432	-2.166493	-3.823806	52.228016	33.143228	-21.887153	-8.865594	62.389422	50.006254
-1.355000	-2.783033	-3.505068	94.703499	-0.007187	-0.270323	0.003130	91.491274	0.774968	-1.609225	26.926737	1.770525	-18.422180	-33.495023	19.006155	6.276917	33.012016	20.350834	8.671170	4.530246	35.462411	21.715682	-2.145594	-3.828971	52.212355	33.136227	-21.873239	-8.860124	62.381424	49.981613
-1.345000	-2.783033	-3.505068	94.703499	-0.007182	-0.270318	0.003110	91.482099	0.776505	-1.609558	26.867833	1.809064	-18.408671	-33.408559	19.017577	6.280481	32.996592	20.355080	8.691355	4.531105	35.448303	21.708753	-2.124858	-3.837081	52.190709	33.137789	-21.856452	-8.844291	62.370293	49.967527
-1.335000	-2.783033	-3.505068	94.703499	-0.007176	-0.270313	0.003091	91.476001	0.778481	-1.609608	26.813243	1.844105	-18.402315	-33.319588	19.027578	6.282738	32.983240	20.363035	8.713779	4.530830	35.427772	21.703128	-2.106168	-3.846524	52.166187	33.146935	-21.839108	-8.820239	62.360054	49.957473
-1.325000	-2.783033	-3.505068	94.703499	-0.007172	-0.270311	0.003082	91.473786	0.778700	-1.611153	26.775062	1.873837	-18.407062	-33.249393	19.038786	6.285303	32.968460	20.374719	8.737632	4.529042	35.400992	21.700291	-2.089348	-3.855512	52.137838	33.162031	-21.822136	-8.791514	62.347607	49.946791
-1.315000	-2.783033	-3.505068	94.703499	-0.007171	-0.270316	0.003088	91.473977	0.775060	-1.615354	26.756300	1.900585	-18.423452	-33.208046	19.056753	6.289195	32.944884	20.388830	8.763211	4.525857	35.367496	21.701935	-2.073032	-3.863014	52.103373	33.181485	-21.805773	-8.762445	62.326223	49.935932
-1.305000	-2.783033	-3.505068	94.703499	-0.007175	-0.270327	0.003111	91.474465	0.767036	-1.622061	26.750679	1.927275	-18.446855	-33.192252	19.085159	6.294270	32.908126	20.403407	8.789821	4.521942	35.329266	21.709452	-2.056481	-3.869185	52.063392	33.203750	-21.790219	-8.737253	62.291640	49.929873
